<svg width="19" height="24" viewBox="0 0 19 24" fill="none" xmlns="http://www.w3.org/2000/svg">
<path fill-rule="evenodd" clip-rule="evenodd" d="M15.5758 2.90715H13.4108V1.75288C13.4108 1.16597 12.935 0.690186 12.3481 0.690186L6.28872 0.690186C5.70181 0.690186 5.22603 1.16597 5.22603 1.75287V2.90715H3.06102C1.59375 2.90715 0.404297 4.0966 0.404297 5.56387V18.0786C0.404297 19.5459 1.59375 20.7353 3.06102 20.7353H3.86969L0.404297 23.837H2.61575L3.73984 22.831H14.6445L15.7683 23.837H17.9797L14.515 20.7353H15.5758C17.043 20.7353 18.2325 19.5459 18.2325 18.0786V5.56387C18.2325 4.0966 17.043 2.90715 15.5758 2.90715ZM12.3365 20.7353H6.07398L5.38769 21.3559H12.997L12.3365 20.7353ZM12.3481 1.75288V2.90715H6.28872V1.75287L12.3481 1.75288ZM6.30797 16.7458C6.30797 17.4957 5.70006 18.1036 4.95017 18.1036C4.20027 18.1036 3.59237 17.4957 3.59237 16.7458C3.59237 15.9959 4.20027 15.388 4.95017 15.388C5.70006 15.388 6.30797 15.9959 6.30797 16.7458ZM13.6866 18.1036C14.4365 18.1036 15.0444 17.4957 15.0444 16.7458C15.0444 15.9959 14.4365 15.388 13.6866 15.388C12.9367 15.388 12.3288 15.9959 12.3288 16.7458C12.3288 17.4957 12.9367 18.1036 13.6866 18.1036ZM7.75965 16.2145C7.46619 16.2145 7.2283 16.4524 7.2283 16.7458C7.2283 17.0393 7.46619 17.2772 7.75965 17.2772H10.8772C11.1707 17.2772 11.4086 17.0393 11.4086 16.7458C11.4086 16.4524 11.1707 16.2145 10.8772 16.2145H7.75965ZM3.59237 5.78336H8.69939V13.8257H3.59237V5.78336ZM15.0444 5.78336H9.93741V13.8257H15.0444V5.78336Z" fill="#122A34"/>
</svg>
