<svg width="16" height="15" viewBox="0 0 16 15" fill="none" xmlns="http://www.w3.org/2000/svg">
<path d="M5.95369 1.36471C5.76039 1.36471 5.60369 1.52141 5.60369 1.71471C5.60369 1.90801 5.76039 2.06471 5.95369 2.06471V1.36471ZM10.201 2.06471C10.3943 2.06471 10.551 1.90801 10.551 1.71471C10.551 1.52141 10.3943 1.36471 10.201 1.36471V2.06471ZM13.8171 2.89412V2.54412C13.6238 2.54412 13.4671 2.70082 13.4671 2.89412H13.8171ZM13.8171 5.75409H13.4671C13.4671 5.94739 13.6238 6.10409 13.8171 6.10409V5.75409ZM12.5495 13.3136H12.8995C12.8995 13.1203 12.7428 12.9636 12.5495 12.9636V13.3136ZM10.4315 13.3136V12.9636C10.2382 12.9636 10.0815 13.1203 10.0815 13.3136H10.4315ZM5.56839 13.3136H5.91839C5.91839 13.1203 5.76169 12.9636 5.56839 12.9636V13.3136ZM3.45039 13.3136V12.9636C3.25709 12.9636 3.10039 13.1203 3.10039 13.3136H3.45039ZM1.99762 2.8818H2.34762C2.34762 2.68851 2.19092 2.5318 1.99762 2.5318V2.8818ZM1.99762 5.74177V6.09177C2.19092 6.09177 2.34762 5.93507 2.34762 5.74177H1.99762ZM5.95369 2.06471H10.201V1.36471H5.95369V2.06471ZM2.75161 0.788477H13.0434V0.0884766H2.75161V0.788477ZM13.0434 0.788477C13.1944 0.788477 13.3168 0.910884 13.3168 1.06186H14.0168C14.0168 0.524266 13.581 0.0884766 13.0434 0.0884766V0.788477ZM13.3168 1.06186V12.5597H14.0168V1.06186H13.3168ZM13.3168 12.5597C13.3168 12.7107 13.1944 12.8331 13.0434 12.8331V13.5331C13.5809 13.5331 14.0168 13.0974 14.0168 12.5597H13.3168ZM13.0434 12.8331H2.75161V13.5331H13.0434V12.8331ZM2.75161 12.8331C2.6006 12.8331 2.47823 12.7107 2.47823 12.5597H1.77823C1.77823 13.0974 2.21404 13.5331 2.75161 13.5331V12.8331ZM2.47823 12.5597V1.06186H1.77823V12.5597H2.47823ZM2.47823 1.06186C2.47823 0.910877 2.60063 0.788477 2.75161 0.788477V0.0884766C2.21403 0.0884766 1.77823 0.524274 1.77823 1.06186H2.47823ZM2.13658 3.24412H13.6058V2.54412H2.13658V3.24412ZM2.13658 9.63245H13.6058V8.93245H2.13658V9.63245ZM13.8171 3.24412H14.7281V2.54412H13.8171V3.24412ZM14.7281 3.24412C14.7793 3.24412 14.8208 3.28562 14.8208 3.33687H15.5208C15.5208 2.89908 15.166 2.54412 14.7281 2.54412V3.24412ZM14.8208 3.33687V5.31134H15.5208V3.33687H14.8208ZM14.8208 5.31134C14.8208 5.36259 14.7793 5.40409 14.7281 5.40409V6.10409C15.166 6.10409 15.5208 5.74915 15.5208 5.31134H14.8208ZM14.7281 5.40409H13.8171V6.10409H14.7281V5.40409ZM14.1671 5.75409V2.89412H13.4671V5.75409H14.1671ZM12.1995 13.3136V14.1188H12.8995V13.3136H12.1995ZM12.1995 14.1188C12.1995 14.17 12.158 14.2115 12.1068 14.2115V14.9115C12.5446 14.9115 12.8995 14.5566 12.8995 14.1188H12.1995ZM12.1068 14.2115H10.8743V14.9115H12.1068V14.2115ZM10.8743 14.2115C10.823 14.2115 10.7815 14.17 10.7815 14.1188H10.0815C10.0815 14.5565 10.4363 14.9115 10.8743 14.9115V14.2115ZM10.7815 14.1188V13.3136H10.0815V14.1188H10.7815ZM10.4315 13.6636H12.5495V12.9636H10.4315V13.6636ZM5.21839 13.3136V14.1188H5.91839V13.3136H5.21839ZM5.21839 14.1188C5.21839 14.17 5.17685 14.2115 5.12564 14.2115V14.9115C5.56349 14.9115 5.91839 14.5566 5.91839 14.1188H5.21839ZM5.12564 14.2115H3.89314V14.9115H5.12564V14.2115ZM3.89314 14.2115C3.84193 14.2115 3.80039 14.17 3.80039 14.1188H3.10039C3.10039 14.5566 3.45529 14.9115 3.89314 14.9115V14.2115ZM3.80039 14.1188V13.3136H3.10039V14.1188H3.80039ZM3.45039 13.6636H5.56839V12.9636H3.45039V13.6636ZM1.99762 2.5318H1.08661V3.2318H1.99762V2.5318ZM1.08661 2.5318C0.648789 2.5318 0.29386 2.88672 0.29386 3.32456H0.99386C0.99386 3.27333 1.03538 3.2318 1.08661 3.2318V2.5318ZM0.29386 3.32456V5.29902H0.99386V3.32456H0.29386ZM0.29386 5.29902C0.29386 5.73684 0.648786 6.09177 1.08661 6.09177V5.39177C1.03539 5.39177 0.99386 5.35025 0.99386 5.29902H0.29386ZM1.08661 6.09177H1.99762V5.39177H1.08661V6.09177ZM2.34762 5.74177V2.8818H1.64762V5.74177H2.34762ZM4.97508 11.2979C4.97508 11.5551 4.76659 11.7636 4.5094 11.7636V12.4636C5.15319 12.4636 5.67508 11.9417 5.67508 11.2979H4.97508ZM4.5094 11.7636C4.25222 11.7636 4.04373 11.5551 4.04373 11.2979H3.34373C3.34373 11.9417 3.86562 12.4636 4.5094 12.4636V11.7636ZM4.04373 11.2979C4.04373 11.0408 4.25222 10.8323 4.5094 10.8323V10.1323C3.86562 10.1323 3.34373 10.6542 3.34373 11.2979H4.04373ZM4.5094 10.8323C4.76659 10.8323 4.97508 11.0408 4.97508 11.2979H5.67508C5.67508 10.6542 5.15319 10.1323 4.5094 10.1323V10.8323ZM11.9562 11.2979C11.9562 11.5551 11.7477 11.7636 11.4905 11.7636V12.4636C12.1343 12.4636 12.6562 11.9417 12.6562 11.2979H11.9562ZM11.4905 11.7636C11.2333 11.7636 11.0248 11.5551 11.0248 11.2979H10.3248C10.3248 11.9417 10.8467 12.4636 11.4905 12.4636V11.7636ZM11.0248 11.2979C11.0248 11.0408 11.2333 10.8323 11.4905 10.8323V10.1323C10.8467 10.1323 10.3248 10.6542 10.3248 11.2979H11.0248ZM11.4905 10.8323C11.7477 10.8323 11.9562 11.0408 11.9562 11.2979H12.6562C12.6562 10.6542 12.1343 10.1323 11.4905 10.1323V10.8323Z" fill="#122A34"/>
</svg>
