<svg width="20" height="18" viewBox="0 0 20 18" fill="none" xmlns="http://www.w3.org/2000/svg">
<g clip-path="url(#clip0_107_240)">
<path d="M7.93884 16.295H13.0018" stroke="#0F2D38" stroke-width="0.7" stroke-linecap="round"/>
<path d="M4.12182 1.20496H16.3901C16.8005 1.20496 17.1332 1.52014 17.1332 1.90895V14.8935C17.1332 15.2823 16.8005 15.5975 16.3901 15.5975H4.12182C3.71142 15.5975 3.37872 15.2823 3.37872 14.8935V1.90895C3.37872 1.52014 3.71142 1.20496 4.12182 1.20496Z" stroke="#0F2D38" stroke-width="0.7"/>
<path d="M3.3587 2.85913L16.8949 2.87305" stroke="#0F2D38" stroke-width="3"/>
<path d="M3.22308 12.7808H16.8949" stroke="#0F2D38" stroke-width="5"/>
<path d="M17.3123 3.97803H18.3983C18.6898 3.97803 18.9261 4.20188 18.9261 4.47803V6.7078C18.9261 6.98394 18.6898 7.2078 18.3983 7.2078H17.3123V3.97803Z" stroke="#0F2D38" stroke-width="0.7" stroke-linejoin="round"/>
<path d="M15.8013 15.7449V16.6542C15.8013 16.9303 15.5649 17.1542 15.2735 17.1542H13.8043C13.5128 17.1542 13.2765 16.9303 13.2765 16.6542V15.7449H15.8013Z" stroke="#0F2D38" stroke-width="0.7" stroke-linejoin="round"/>
<path d="M7.47959 15.7449V16.6542C7.47959 16.9303 7.24329 17.1542 6.95181 17.1542H5.48261C5.19112 17.1542 4.95483 16.9303 4.95483 16.6542V15.7449H7.47959Z" stroke="#0F2D38" stroke-width="0.7" stroke-linejoin="round"/>
<path d="M3.22306 3.96411H2.13709C1.84561 3.96411 1.60931 4.18797 1.60931 4.46411V6.69388C1.60931 6.97002 1.84561 7.19388 2.13709 7.19388H3.22306V3.96411Z" stroke="#0F2D38" stroke-width="0.7" stroke-linejoin="round"/>
<path d="M6.21713 14.3898C6.75413 14.3898 7.18946 13.9774 7.18946 13.4686C7.18946 12.9599 6.75413 12.5475 6.21713 12.5475C5.68014 12.5475 5.24481 12.9599 5.24481 13.4686C5.24481 13.9774 5.68014 14.3898 6.21713 14.3898Z" fill="white"/>
<path d="M14.5389 14.3898C15.0759 14.3898 15.5112 13.9774 15.5112 13.4686C15.5112 12.9599 15.0759 12.5475 14.5389 12.5475C14.0019 12.5475 13.5666 12.9599 13.5666 13.4686C13.5666 13.9774 14.0019 14.3898 14.5389 14.3898Z" fill="white"/>
<path d="M8.09552 2.56482H12.4164" stroke="white" stroke-width="0.8" stroke-linecap="round"/>
</g>
<defs>
<clipPath id="clip0_107_240">
<rect width="19" height="17" fill="white" transform="translate(0.399658 0.763672)"/>
</clipPath>
</defs>
</svg>
