<svg width="20" height="20" viewBox="0 0 20 20" fill="none" xmlns="http://www.w3.org/2000/svg">
<g clip-path="url(#clip0_107_202)">
<path d="M12.3992 0.538818H8.08539C7.7487 0.538818 7.47577 0.826121 7.47577 1.18055V2.91711H13.0088V1.18055C13.0088 0.826121 12.7359 0.538818 12.3992 0.538818Z" fill="#F8CB09"/>
<path fill-rule="evenodd" clip-rule="evenodd" d="M18.5338 8.70243C18.5338 8.70243 19.0522 8.78259 19.2974 9.27907C19.5426 9.77547 19.2974 17.0619 19.2974 17.0619H18.2684V18.961C18.2684 19.2107 18.0077 19.4132 17.6862 19.4132H15.4552C15.1336 19.4132 14.873 19.2107 14.873 18.961V17.0619H5.35725V18.961C5.35725 19.2107 5.09656 19.4132 4.77501 19.4132H2.54399C2.22243 19.4132 1.96179 19.2107 1.96179 18.961V17.0619H1.14789C1.14789 17.0619 0.991332 9.54075 1.14789 9.12155C1.30445 8.70235 1.69512 8.70243 1.69512 8.70243L2.64479 4.18509C2.87274 3.10116 3.75682 2.33276 4.77607 2.33276H15.4528C16.4721 2.33276 17.3562 3.10116 17.5841 4.18509L18.5338 8.70243ZM17.3234 8.70235H2.9058L3.795 4.47316C3.90061 3.97115 4.3039 3.62008 4.7764 3.62008H15.4528C15.9252 3.62008 16.3285 3.97115 16.4342 4.47316L17.3234 8.70235Z" fill="#122A34"/>
<path d="M4.85398 14.3209C5.5689 14.3209 6.14845 13.7108 6.14845 12.9583C6.14845 12.2058 5.5689 11.5957 4.85398 11.5957C4.13906 11.5957 3.55951 12.2058 3.55951 12.9583C3.55951 13.7108 4.13906 14.3209 4.85398 14.3209Z" fill="white"/>
<path d="M15.9215 14.3209C16.6365 14.3209 17.216 13.7108 17.216 12.9583C17.216 12.2058 16.6365 11.5957 15.9215 11.5957C15.2066 11.5957 14.6271 12.2058 14.6271 12.9583C14.6271 13.7108 15.2066 14.3209 15.9215 14.3209Z" fill="white"/>
</g>
<defs>
<clipPath id="clip0_107_202">
<rect width="19" height="20" fill="white" transform="translate(0.404297)"/>
</clipPath>
</defs>
</svg>
