<svg width="158" height="37" viewBox="0 0 158 37" fill="none" xmlns="http://www.w3.org/2000/svg">
<path fill-rule="evenodd" clip-rule="evenodd" d="M37.5251 2.47487C37.107 2.05676 36.8056 1.54376 36.6419 0.98648C36.4862 0.456591 36.0523 1.32328e-06 35.5 0V0H6C2.6863 0 2.9998e-06 2.68629 2.71011e-06 6L0 31C0 34.3137 2.68629 37 6 37L35.5 37V37C36.0523 37 36.4862 36.5434 36.6419 36.0135C36.8056 35.4562 37.107 34.9432 37.5251 34.5251C38.1815 33.8687 39.0717 33.5 40 33.5C40.9283 33.5 41.8185 33.8687 42.4749 34.5251C42.893 34.9432 43.1944 35.4562 43.3581 36.0135C43.5138 36.5434 43.9477 37 44.5 37V37L151.5 37C154.814 37 157.5 34.3137 157.5 31V6.00001C157.5 2.6863 154.814 8.73467e-06 151.5 8.44498e-06L44.5 0H44V0C43.7239 0 43.5037 0.224998 43.4644 0.49833C43.3573 1.24235 43.0126 1.9371 42.4749 2.47487C41.8185 3.13125 40.9283 3.5 40 3.5C39.0717 3.5 38.1815 3.13125 37.5251 2.47487ZM45.1852 0.999999C44.7185 0.999999 44.3247 1.32845 44.1424 1.75803C43.9188 2.28493 43.5946 2.76939 43.182 3.18198C42.3381 4.02589 41.1935 4.5 40 4.5C38.8065 4.5 37.6619 4.02589 36.818 3.18198C36.4054 2.76939 36.0812 2.28493 35.8576 1.75803C35.6753 1.32845 35.2815 1 34.8148 1L6 0.999999C3.23857 0.999999 1 3.23857 1 6L1 31C1 33.7614 3.23857 36 6 36L34.8148 36C35.2815 36 35.6753 35.6715 35.8576 35.242C36.0812 34.7151 36.4054 34.2306 36.818 33.818C37.6619 32.9741 38.8065 32.5 40 32.5C41.1935 32.5 42.3381 32.9741 43.182 33.818C43.5946 34.2306 43.9188 34.7151 44.1424 35.242C44.3247 35.6715 44.7185 36 45.1852 36L151.5 36C154.261 36 156.5 33.7614 156.5 31V6.00001C156.5 3.23858 154.261 1.00001 151.5 1.00001L45.1852 0.999999Z" fill="url(#paint0_linear_106_52)"/>
<path d="M40 6L40 32" stroke="#DED1D1" stroke-linejoin="round" stroke-dasharray="2 2"/>
<defs>
<linearGradient id="paint0_linear_106_52" x1="9.17731" y1="32.8375" x2="154.985" y2="-6.16534" gradientUnits="userSpaceOnUse">
<stop stop-color="#FFCC05"/>
<stop offset="0.506267" stop-color="#ACC640"/>
<stop offset="1" stop-color="#17BBBE"/>
</linearGradient>
</defs>
</svg>
