<svg width="18" height="21" viewBox="0 0 18 21" fill="none" xmlns="http://www.w3.org/2000/svg">
<path fill-rule="evenodd" clip-rule="evenodd" d="M5.93479 17.3387C5.33384 17.3386 4.73291 17.3382 4.13206 17.3371C1.66575 17.3329 0.152327 15.2922 0.433005 12.8148C0.51117 12.1249 0.586258 11.4324 0.661402 10.7394C0.959273 7.99255 1.25804 5.2373 1.75313 2.59693C2.0205 1.16984 3.74503 0.431303 5.19072 0.422974H12.6463C14.0923 0.43158 15.264 1.4708 15.5313 2.89762C16.3607 5.5405 16.7639 8.36132 17.1613 11.141C17.2414 11.7012 17.3213 12.2597 17.4043 12.8148C17.4043 15.2922 16.1716 17.3326 13.7053 17.3371C13.1044 17.3382 12.5035 17.3386 11.9025 17.3387H13.6482L16.7376 20.1043H14.7657L13.7637 19.2073H4.04059L3.03829 20.1043H1.06646L4.15636 17.3387H5.93479ZM6.12181 17.3387L5.50988 17.8921H12.2947L11.7058 17.3387C11.2895 17.3387 10.8732 17.3386 10.4569 17.3384C9.9441 17.3383 9.43135 17.3381 8.91867 17.3382C8.40598 17.3381 7.89323 17.3383 7.38047 17.3384C6.96092 17.3386 6.54137 17.3387 6.12181 17.3387ZM13.8332 15.2922C14.5696 15.2992 15.1493 14.7317 15.1515 14.0023C15.1532 13.2643 14.5893 12.6921 13.8574 12.6893C13.1402 12.6865 12.5625 13.2507 12.5519 13.9648C12.5405 14.6981 13.1083 15.2858 13.8332 15.2922ZM11.1801 1.93308H6.65724C6.29076 1.93308 5.99367 2.23016 5.99367 2.59693C5.99367 2.96342 6.29076 3.26078 6.65724 3.26078H11.1801C11.5468 3.26078 11.8439 2.96342 11.8439 2.59693C11.8439 2.23016 11.5466 1.93308 11.1801 1.93308ZM3.74092 7.38577C3.56951 8.2365 3.3981 9.0873 3.2375 9.94008C3.117 10.5803 3.42602 11.1886 4.08153 11.1886H13.7558C14.411 11.1886 14.7203 10.5803 14.5995 9.94008C14.4389 9.0873 14.2675 8.2365 14.0961 7.38577C14.0361 7.08787 13.9761 6.78998 13.9165 6.49201C13.851 6.16522 13.7855 5.83843 13.7119 5.51331C13.602 5.02882 13.359 4.84446 12.8573 4.82642H4.97971C4.47773 4.84474 4.23479 5.02882 4.12513 5.51331C4.05183 5.83843 3.98575 6.16522 3.9205 6.49201C3.86096 6.78998 3.80094 7.08787 3.74092 7.38577ZM5.28568 13.9648C5.27513 13.2504 4.69708 12.6863 3.97992 12.6893C3.24777 12.6921 2.68415 13.2643 2.68581 14.0023C2.68776 14.7317 3.26748 15.2989 4.0038 15.2922C4.72928 15.2858 5.29679 14.6983 5.28568 13.9648Z" fill="black"/>
</svg>
